# xmcd
#
# Track frame offsets:
#	150
#	18901
#	32976
#	47485
#	65058
#	81390
#	99804
#	118404
#	133985
#	149091
#
# Disc length: 2184 seconds
#
# Revision: 0
# Processed by: cddbd v1.4PL0 Copyright (c) Steve Scherf et al.
# Submitted via: dBpowerAMP V4.0
#
DISCID=9508860a
DTITLE=Boots Randolph - Songs For The Spirit
DYEAR=2000
DGENRE=Gospel
TTITLE0=Just A Closer Walk With Thee
TTITLE1=In The Garden
TTITLE2=The Lords Prayer
TTITLE3=The Old Rugged Cross
TTITLE4=Medley (shall we gather_when the roll_sweet by and by
TTITLE5=What A Friend We Have In Jesus
TTITLE6=Patriotic Medley Am the beaut._GodBlessAm_When The Saints
TTITLE7=Amazing Grace
TTITLE8=Precious Lord Take My Hand
TTITLE9=Medley_give me that old time rel. will the circle
EXTD=
EXTT0=
EXTT1=
EXTT2=
EXTT3=
EXTT4=
EXTT5=
EXTT6=
EXTT7=
EXTT8=
EXTT9=
PLAYORDER=
